<svg width="190" height="78" viewBox="0 0 190 78" fill="none" xmlns="http://www.w3.org/2000/svg">
<g clip-path="url(#clip0_575_7679)">
<path d="M92.26 21.444C91.4819 20.6472 90.5529 20.0074 89.4989 19.5457C88.4402 19.084 87.2895 18.8496 86.0729 18.8496C84.8585 18.8496 83.7055 19.084 82.6468 19.5457C81.5928 20.0074 80.6662 20.6448 79.8975 21.444C79.1288 22.2408 78.5181 23.1853 78.0796 24.2493C77.641 25.3133 77.417 26.4734 77.417 27.6967C77.417 28.9201 77.6386 30.0849 78.0772 31.1582C78.5158 32.2316 79.1335 33.1808 79.9093 33.9776C80.685 34.7744 81.6093 35.4142 82.6563 35.8759C83.7055 36.3376 84.8538 36.572 86.0681 36.572C87.2825 36.572 88.4355 36.3376 89.4942 35.8759C90.5505 35.4142 91.4772 34.7768 92.2553 33.9776C93.031 33.1808 93.6488 32.2316 94.0874 31.1582C94.526 30.0849 94.7476 28.9201 94.7476 27.6991C94.7476 26.4757 94.5259 25.3156 94.085 24.2516C93.6535 23.1853 93.0358 22.2408 92.26 21.444ZM86.0752 33.9307C85.2004 33.9307 84.4058 33.7643 83.7079 33.4315C83.0099 33.1011 82.4016 32.6441 81.9017 32.0769C81.3995 31.5074 81.0081 30.8372 80.7369 30.0849C80.4658 29.3302 80.3267 28.5193 80.3267 27.6756C80.3267 26.8155 80.4634 25.9953 80.7369 25.2406C81.0081 24.4883 81.3995 23.8181 81.9017 23.2486C82.4016 22.6814 83.0076 22.2291 83.7055 21.9057C84.4011 21.5823 85.1981 21.4205 86.0752 21.4205C86.95 21.4205 87.7517 21.5846 88.4567 21.908C89.1641 22.2314 89.7748 22.6838 90.2746 23.2509C90.7745 23.8204 91.1683 24.4907 91.4395 25.243C91.7106 26 91.8497 26.8179 91.8497 27.678C91.8497 28.5217 91.713 29.3326 91.4395 30.0872C91.1683 30.8419 90.7769 31.5121 90.2746 32.0793C89.7748 32.6464 89.1617 33.1034 88.4567 33.4339C87.7493 33.762 86.95 33.9307 86.0752 33.9307Z" fill="url(#paint0_linear_575_7679)"/>
<path d="M107.596 20.9917C107.138 20.4948 106.52 20.0777 105.761 19.7566C105 19.4332 104.033 19.2715 102.885 19.2715H97.4331V36.1525H100.215V29.6865H103.007C103.835 29.6865 104.613 29.5763 105.318 29.356C106.028 29.1357 106.65 28.8029 107.167 28.367C107.685 27.9288 108.096 27.378 108.39 26.7265C108.683 26.0773 108.831 25.318 108.831 24.4696C108.831 23.8907 108.742 23.2908 108.562 22.6838C108.381 22.058 108.055 21.4909 107.596 20.9917ZM105.976 24.5141C105.976 25.3719 105.719 26.0469 105.212 26.5203C104.7 26.9984 103.95 27.2421 102.986 27.2421H100.218V21.7135H102.986C103.92 21.7135 104.66 21.9643 105.188 22.4588C105.716 22.9556 105.976 23.6306 105.976 24.5141Z" fill="url(#paint1_linear_575_7679)"/>
<path d="M122.934 33.6096H114.295V28.6974H120.352V26.1546H114.295V21.7884H122.34V19.269H111.489V36.1524H122.934V33.6096Z" fill="url(#paint2_linear_575_7679)"/>
<path d="M139.696 36.1524V19.269H136.938V31.6714L128.223 19.269H125.492V36.1524H128.249V23.7266L136.99 36.1524H139.696Z" fill="url(#paint3_linear_575_7679)"/>
<path d="M154.469 33.633H145.853V19.269H143.047V36.1524H154.469V33.633Z" fill="url(#paint4_linear_575_7679)"/>
<path d="M159.46 19.269H156.654V36.1501H159.46V19.269Z" fill="url(#paint5_linear_575_7679)"/>
<path d="M169.081 32.4003L164.188 19.269H161.075L167.645 36.1524H170.368L176.937 19.269H173.976L169.081 32.4003Z" fill="url(#paint6_linear_575_7679)"/>
<path d="M181.361 33.6096V28.6974H187.418V26.1546H181.361V21.7884H189.403V19.269H178.552V36.1524H190V33.6096H181.361Z" fill="url(#paint7_linear_575_7679)"/>
<path d="M123.717 54.5592L114.999 42.1592H112.269V59.0425H115.025V46.6144L123.769 59.0425H126.473V42.1592H123.717V54.5592Z" fill="url(#paint8_linear_575_7679)"/>
<path d="M129.423 59.0425H132.229V51.8359H138.338V49.3166H132.229V44.702H140.248V42.1592H129.423V59.0425Z" fill="url(#paint9_linear_575_7679)"/>
<path d="M142.321 44.6528H148.256V59.0425H151.064V44.6528H156.973V42.1592H142.321V44.6528Z" fill="url(#paint10_linear_575_7679)"/>
<path d="M37.6674 36.8906L40.0937 35.5313L47.4975 31.3808L47.6555 31.2917L41.0958 27.6123L38.2757 26.0303L37.6674 25.6905L33.9159 23.5859L30.1292 25.7116L29.509 26.0608L26.689 27.6427L20.1812 31.2941L20.3226 31.3738L27.7052 35.5126L30.1292 36.8719L32.5814 38.2476L33.4019 38.7069L33.9159 38.9952L34.0975 38.892L34.9204 38.4327L37.6674 36.8906ZM33.9159 34.7837L30.1292 32.6604L27.7052 31.3011L27.6887 31.2917L27.7052 31.28L30.1292 29.9207L33.9159 27.7974L37.6674 29.902L38.2757 30.2418L39.5042 30.9308L40.0937 31.2613L40.1479 31.2917L40.0937 31.3222L37.6674 32.6838L33.9159 34.7837Z" fill="url(#paint11_linear_575_7679)"/>
<path d="M47.6907 42.9324V42.2551L47.6883 39.0186L47.686 32.6416L47.6341 32.6721L41.0744 36.3515L38.6222 37.7296L35.8116 39.3068L35.0241 39.7474L34.5312 40.024L34.5336 40.2208L34.5312 41.102V44.0362L34.5336 46.8181L34.536 54.7418V54.784L40.5085 51.4327L43.3592 49.832L44.0077 49.4687L47.6978 47.397L47.6907 42.9324ZM40.4519 47.4321L38.8156 48.3508L38.1341 48.7352L38.1318 46.8368V46.101L38.1294 42.0418L42.1779 39.7709L42.7721 39.4357L44.0949 38.6928V40.87L44.0973 45.3862L40.4519 47.4321Z" fill="url(#paint12_linear_575_7679)"/>
<path d="M32.8549 39.7476L32.0697 39.307L29.219 37.7063L26.7668 36.3306L20.1906 32.6394L20.1859 38.9695L20.1835 40.1038V42.888L20.1812 47.3995L23.8288 49.4454L24.4678 49.804L27.3185 51.4047L32.862 54.5147L33.3406 54.7818L33.343 46.7643V43.9825L33.3453 41.0975L33.343 40.2163L33.3453 40.0194L32.8549 39.7476ZM29.7472 46.0519V46.7784L29.7448 48.7353L29.0634 48.351L27.3822 47.4065L23.7793 45.3839V38.6906L25.0597 39.4101L25.6609 39.7476L29.7495 42.0396L29.7472 46.0519Z" fill="url(#paint13_linear_575_7679)"/>
<path fill-rule="evenodd" clip-rule="evenodd" d="M51.6452 52.9585C50.8859 52.9585 50.1809 53.1905 49.5985 53.5866L46.9365 52.0586L43.7839 53.8678L43.7934 53.8725L33.9845 59.5019L24.1756 53.8725L24.2039 53.8561L21.0514 52.0445L8.05225 59.5042L3.1478 56.6919V21.3011L17.3707 13.1406C17.9531 13.5367 18.6605 13.7687 19.4197 13.7687C21.4263 13.7687 23.0509 12.1516 23.0509 10.1572C23.0509 8.16279 21.4239 6.54804 19.4197 6.54804C17.4131 6.54804 15.7862 8.16513 15.7862 10.1572C15.7862 10.2486 15.7909 10.34 15.798 10.4291L0 19.4965V58.4965L8.05932 63.1204L21.0207 55.6841L33.9845 63.1228L46.9482 55.6865L48.0235 56.3029C48.0164 56.3919 48.014 56.481 48.014 56.5724C48.014 58.5668 49.641 60.1815 51.6476 60.1815C53.6541 60.1815 55.2787 58.5644 55.2787 56.5724C55.2764 54.5756 53.6494 52.9585 51.6452 52.9585ZM55.0052 41.8123V26.9351L42.0414 19.4988V18.2637C42.1216 18.2262 42.2018 18.1841 42.282 18.1395C44.0197 17.1412 44.6139 14.9335 43.6118 13.2062C42.6097 11.479 40.3862 10.8884 38.6484 11.8844C36.9106 12.8805 36.3165 15.0905 37.3186 16.8177C37.6982 17.4716 38.2523 17.9614 38.8889 18.2661V21.2753L51.8574 28.7233V43.6263L64.8188 51.0649V56.6942L33.9845 74.3885L19.7616 66.228C19.8158 65.5273 19.6649 64.8031 19.2853 64.1493C18.2808 62.422 16.0597 61.8314 14.3219 62.8275C12.5841 63.8258 11.9899 66.0335 12.9921 67.7608C13.9965 69.488 16.2177 70.0786 17.9554 69.0826C18.0333 69.038 18.1134 68.9888 18.1889 68.9372L33.9868 78.0023C45.3142 71.5012 56.6416 65.0023 67.969 58.5035V49.2533L55.0052 41.8123ZM68.2142 37.7579C68.134 37.7133 68.0539 37.6688 67.9713 37.6313V19.5012C56.644 13 45.3166 6.49883 33.9916 0L25.9322 4.62394V19.4988L12.9685 26.9374V41.8147L11.8933 42.4334C11.8202 42.3818 11.7424 42.3349 11.6646 42.2881C9.92678 41.292 7.70563 41.8826 6.70117 43.6099C5.6967 45.3371 6.29325 47.5471 8.03102 48.5432C9.7688 49.5392 11.9899 48.9486 12.9944 47.2214C13.374 46.5675 13.5249 45.8457 13.4707 45.1473L16.1516 43.6099V39.9913L16.1257 40.0054V28.7467L16.1516 28.7326V28.7209L29.0871 21.2893V6.42852L33.9916 3.61384L64.8259 21.3081V37.6313C64.1892 37.9337 63.6351 38.4258 63.2532 39.0797C62.2511 40.8069 62.8452 43.0169 64.583 44.013C66.3208 45.0113 68.5443 44.4184 69.5464 42.6912C70.5462 40.9639 69.952 38.7563 68.2142 37.7579Z" fill="url(#paint14_linear_575_7679)"/>
</g>
<defs>
<linearGradient id="paint0_linear_575_7679" x1="86.0867" y1="38.458" x2="86.0867" y2="22.6224" gradientUnits="userSpaceOnUse">
<stop stop-color="#10AEE5"/>
<stop offset="1" stop-color="#46BFB8"/>
</linearGradient>
<linearGradient id="paint1_linear_575_7679" x1="103.132" y1="38.458" x2="103.132" y2="22.6224" gradientUnits="userSpaceOnUse">
<stop stop-color="#10AEE5"/>
<stop offset="1" stop-color="#46BFB8"/>
</linearGradient>
<linearGradient id="paint2_linear_575_7679" x1="117.211" y1="38.4579" x2="117.211" y2="22.6223" gradientUnits="userSpaceOnUse">
<stop stop-color="#10AEE5"/>
<stop offset="1" stop-color="#46BFB8"/>
</linearGradient>
<linearGradient id="paint3_linear_575_7679" x1="132.594" y1="38.4579" x2="132.594" y2="22.6223" gradientUnits="userSpaceOnUse">
<stop stop-color="#10AEE5"/>
<stop offset="1" stop-color="#46BFB8"/>
</linearGradient>
<linearGradient id="paint4_linear_575_7679" x1="148.758" y1="38.4579" x2="148.758" y2="22.6223" gradientUnits="userSpaceOnUse">
<stop stop-color="#10AEE5"/>
<stop offset="1" stop-color="#46BFB8"/>
</linearGradient>
<linearGradient id="paint5_linear_575_7679" x1="158.057" y1="38.4579" x2="158.057" y2="22.6223" gradientUnits="userSpaceOnUse">
<stop stop-color="#10AEE5"/>
<stop offset="1" stop-color="#46BFB8"/>
</linearGradient>
<linearGradient id="paint6_linear_575_7679" x1="169.006" y1="38.4579" x2="169.006" y2="22.6223" gradientUnits="userSpaceOnUse">
<stop stop-color="#10AEE5"/>
<stop offset="1" stop-color="#46BFB8"/>
</linearGradient>
<linearGradient id="paint7_linear_575_7679" x1="184.277" y1="38.4579" x2="184.277" y2="22.6223" gradientUnits="userSpaceOnUse">
<stop stop-color="#10AEE5"/>
<stop offset="1" stop-color="#46BFB8"/>
</linearGradient>
<linearGradient id="paint8_linear_575_7679" x1="119.747" y1="60.2749" x2="119.115" y2="43.7985" gradientUnits="userSpaceOnUse">
<stop stop-color="#10AEE5"/>
<stop offset="1" stop-color="#46BFB8"/>
</linearGradient>
<linearGradient id="paint9_linear_575_7679" x1="135.189" y1="59.6818" x2="134.556" y2="43.2053" gradientUnits="userSpaceOnUse">
<stop stop-color="#10AEE5"/>
<stop offset="1" stop-color="#46BFB8"/>
</linearGradient>
<linearGradient id="paint10_linear_575_7679" x1="150.257" y1="59.103" x2="149.624" y2="42.6265" gradientUnits="userSpaceOnUse">
<stop stop-color="#10AEE5"/>
<stop offset="1" stop-color="#46BFB8"/>
</linearGradient>
<linearGradient id="paint11_linear_575_7679" x1="-0.239676" y1="66.7518" x2="52.2782" y2="11.5652" gradientUnits="userSpaceOnUse">
<stop stop-color="#10AEE5"/>
<stop offset="1" stop-color="#46BFB8"/>
</linearGradient>
<linearGradient id="paint12_linear_575_7679" x1="9.75498" y1="76.2631" x2="62.2728" y2="21.0766" gradientUnits="userSpaceOnUse">
<stop stop-color="#10AEE5"/>
<stop offset="1" stop-color="#46BFB8"/>
</linearGradient>
<linearGradient id="paint13_linear_575_7679" x1="2.27093" y1="69.1411" x2="54.7888" y2="13.9545" gradientUnits="userSpaceOnUse">
<stop stop-color="#10AEE5"/>
<stop offset="1" stop-color="#46BFB8"/>
</linearGradient>
<linearGradient id="paint14_linear_575_7679" x1="3.66701" y1="70.4695" x2="56.1848" y2="15.283" gradientUnits="userSpaceOnUse">
<stop stop-color="#10AEE5"/>
<stop offset="1" stop-color="#46BFB8"/>
</linearGradient>
<clipPath id="clip0_575_7679">
<rect width="190" height="78" fill="white"/>
</clipPath>
</defs>
</svg>
