<svg width="71" height="78" viewBox="0 0 71 78" fill="none" xmlns="http://www.w3.org/2000/svg">
<path d="M37.6674 36.8906L40.0937 35.5313L47.4975 31.3808L47.6555 31.2917L41.0958 27.6123L38.2757 26.0303L37.6674 25.6905L33.9159 23.5859L30.1292 25.7116L29.509 26.0608L26.689 27.6427L20.1812 31.2941L20.3226 31.3738L27.7052 35.5126L30.1292 36.8719L32.5814 38.2476L33.4019 38.7069L33.9159 38.9952L34.0975 38.892L34.9204 38.4327L37.6674 36.8906ZM33.9159 34.7837L30.1292 32.6604L27.7052 31.3011L27.6887 31.2917L27.7052 31.28L30.1292 29.9207L33.9159 27.7974L37.6674 29.902L38.2757 30.2418L39.5042 30.9308L40.0937 31.2613L40.1479 31.2917L40.0937 31.3222L37.6674 32.6838L33.9159 34.7837Z" fill="url(#paint0_linear_575_7693)"/>
<path d="M47.6907 42.9324V42.2551L47.6883 39.0186L47.686 32.6416L47.6341 32.6721L41.0744 36.3515L38.6222 37.7296L35.8116 39.3068L35.0241 39.7474L34.5312 40.024L34.5336 40.2208L34.5312 41.102V44.0362L34.5336 46.8181L34.536 54.7418V54.784L40.5085 51.4327L43.3592 49.832L44.0077 49.4687L47.6978 47.397L47.6907 42.9324ZM40.4519 47.4321L38.8156 48.3508L38.1341 48.7352L38.1318 46.8368V46.101L38.1294 42.0418L42.1779 39.7709L42.7721 39.4357L44.0949 38.6928V40.87L44.0973 45.3862L40.4519 47.4321Z" fill="url(#paint1_linear_575_7693)"/>
<path d="M32.8549 39.7476L32.0697 39.307L29.219 37.7063L26.7668 36.3306L20.1906 32.6394L20.1859 38.9695L20.1835 40.1038V42.888L20.1812 47.3995L23.8288 49.4454L24.4678 49.804L27.3185 51.4047L32.862 54.5147L33.3406 54.7818L33.343 46.7643V43.9825L33.3453 41.0975L33.343 40.2163L33.3453 40.0194L32.8549 39.7476ZM29.7472 46.0519V46.7784L29.7448 48.7353L29.0634 48.351L27.3822 47.4065L23.7793 45.3839V38.6906L25.0597 39.4101L25.6609 39.7476L29.7495 42.0396L29.7472 46.0519Z" fill="url(#paint2_linear_575_7693)"/>
<path fill-rule="evenodd" clip-rule="evenodd" d="M51.6452 52.9585C50.8859 52.9585 50.1809 53.1905 49.5985 53.5866L46.9365 52.0586L43.7839 53.8678L43.7934 53.8725L33.9845 59.5019L24.1756 53.8725L24.2039 53.8561L21.0514 52.0445L8.05225 59.5042L3.1478 56.6919V21.3011L17.3707 13.1406C17.9531 13.5367 18.6605 13.7687 19.4197 13.7687C21.4263 13.7687 23.0509 12.1516 23.0509 10.1572C23.0509 8.16279 21.4239 6.54804 19.4197 6.54804C17.4131 6.54804 15.7862 8.16513 15.7862 10.1572C15.7862 10.2486 15.7909 10.34 15.798 10.4291L0 19.4965V58.4965L8.05932 63.1204L21.0207 55.6841L33.9845 63.1228L46.9482 55.6865L48.0235 56.3029C48.0164 56.3919 48.014 56.481 48.014 56.5724C48.014 58.5668 49.641 60.1815 51.6476 60.1815C53.6541 60.1815 55.2787 58.5644 55.2787 56.5724C55.2764 54.5756 53.6494 52.9585 51.6452 52.9585ZM55.0052 41.8123V26.9351L42.0414 19.4988V18.2637C42.1216 18.2262 42.2018 18.1841 42.282 18.1395C44.0197 17.1412 44.6139 14.9335 43.6118 13.2062C42.6097 11.479 40.3862 10.8884 38.6484 11.8844C36.9106 12.8805 36.3165 15.0905 37.3186 16.8177C37.6982 17.4716 38.2523 17.9614 38.8889 18.2661V21.2753L51.8574 28.7233V43.6263L64.8188 51.0649V56.6942L33.9845 74.3885L19.7616 66.228C19.8158 65.5273 19.6649 64.8031 19.2853 64.1493C18.2808 62.422 16.0597 61.8314 14.3219 62.8275C12.5841 63.8258 11.9899 66.0335 12.9921 67.7608C13.9965 69.488 16.2177 70.0786 17.9554 69.0825C18.0333 69.038 18.1134 68.9888 18.1889 68.9372L33.9868 78.0023C45.3142 71.5012 56.6416 65.0023 67.969 58.5035V49.2533L55.0052 41.8123ZM68.2142 37.7579C68.134 37.7133 68.0539 37.6688 67.9713 37.6313V19.5012C56.644 13 45.3166 6.49883 33.9916 0L25.9322 4.62394V19.4988L12.9685 26.9374V41.8147L11.8933 42.4334C11.8202 42.3818 11.7424 42.3349 11.6646 42.2881C9.92678 41.292 7.70563 41.8826 6.70117 43.6099C5.6967 45.3371 6.29325 47.5471 8.03102 48.5432C9.7688 49.5392 11.9899 48.9486 12.9944 47.2214C13.374 46.5675 13.5249 45.8457 13.4707 45.1473L16.1516 43.6099V39.9913L16.1257 40.0054V28.7467L16.1516 28.7326V28.7209L29.0871 21.2893V6.42852L33.9916 3.61384L64.8259 21.3081V37.6313C64.1892 37.9337 63.6351 38.4258 63.2532 39.0797C62.2511 40.8069 62.8452 43.0169 64.583 44.013C66.3208 45.0113 68.5443 44.4184 69.5464 42.6912C70.5462 40.9639 69.952 38.7563 68.2142 37.7579Z" fill="url(#paint3_linear_575_7693)"/>
<defs>
<linearGradient id="paint0_linear_575_7693" x1="-0.239676" y1="66.7518" x2="52.2782" y2="11.5652" gradientUnits="userSpaceOnUse">
<stop stop-color="#10AEE5"/>
<stop offset="1" stop-color="#46BFB8"/>
</linearGradient>
<linearGradient id="paint1_linear_575_7693" x1="9.75498" y1="76.2631" x2="62.2728" y2="21.0766" gradientUnits="userSpaceOnUse">
<stop stop-color="#10AEE5"/>
<stop offset="1" stop-color="#46BFB8"/>
</linearGradient>
<linearGradient id="paint2_linear_575_7693" x1="2.27093" y1="69.1411" x2="54.7888" y2="13.9545" gradientUnits="userSpaceOnUse">
<stop stop-color="#10AEE5"/>
<stop offset="1" stop-color="#46BFB8"/>
</linearGradient>
<linearGradient id="paint3_linear_575_7693" x1="3.66701" y1="70.4695" x2="56.1848" y2="15.283" gradientUnits="userSpaceOnUse">
<stop stop-color="#10AEE5"/>
<stop offset="1" stop-color="#46BFB8"/>
</linearGradient>
</defs>
</svg>
